<?xml version="1.0" standalone="no"?>
<!DOCTYPE svg PUBLIC "-//W3C//DTD SVG 20010904//EN"
 "http://www.w3.org/TR/2001/REC-SVG-20010904/DTD/svg10.dtd">
<svg version="1.0" xmlns="http://www.w3.org/2000/svg"
 width="612.000000pt" height="612.000000pt" viewBox="0 0 612.000000 612.000000"
 preserveAspectRatio="xMidYMid meet">
<metadata>
Created by potrace 1.14, written by Peter Selinger 2001-2017
</metadata>
<g transform="translate(0.000000,612.000000) scale(0.100000,-0.100000)"
fill="#000000" stroke="none">
<path d="M2755 5750 c-38 -10 -97 -28 -129 -40 -54 -21 -60 -21 -71 -6 -11 14
-21 10 -96 -36 -46 -28 -110 -67 -141 -86 -55 -33 -70 -53 -48 -67 5 -3 36 14
67 38 105 80 242 139 323 140 34 0 68 -11 139 -47 52 -26 108 -58 125 -69 57
-40 181 -144 211 -178 38 -42 185 -226 185 -232 0 -2 -33 -7 -74 -11 -206 -19
-453 -133 -632 -295 -103 -92 -208 -244 -220 -317 -8 -50 -15 -42 224 -253
164 -146 202 -172 202 -139 0 30 78 133 143 188 40 33 86 73 102 89 34 31 100
71 119 71 7 0 31 9 53 20 62 30 210 70 258 70 40 0 75 -21 75 -46 0 -5 15 -32
33 -59 17 -28 49 -84 71 -125 64 -123 165 -289 333 -543 110 -167 121 -187
105 -187 -5 0 -13 -8 -16 -17 -6 -16 -6 -16 12 0 23 21 32 22 32 3 0 -13 -69
-85 -145 -151 -45 -39 -230 -162 -294 -195 -65 -34 -97 -55 -68 -46 9 3 17 2
17 -3 0 -5 11 -12 25 -15 65 -16 251 -148 239 -169 -4 -7 -4 -9 1 -5 10 10 35
-10 35 -27 0 -7 -30 -27 -66 -45 -103 -50 -68 -45 42 6 130 61 230 132 357
254 l103 99 38 -40 c36 -39 186 -313 186 -341 0 -15 -67 -99 -128 -161 -67
-68 -325 -232 -448 -285 -144 -61 -326 -76 -399 -34 -19 12 -35 19 -35 16 0
-21 68 -98 97 -110 52 -22 183 -29 240 -14 241 66 639 329 735 485 13 22 32
69 41 104 20 72 15 102 -35 182 -15 25 -28 51 -28 58 0 6 -11 38 -25 71 -14
33 -25 77 -25 97 0 42 -44 143 -104 237 -49 75 -177 260 -186 266 -4 3 -10 17
-13 31 -8 33 -64 109 -80 109 -6 0 -52 66 -100 148 -49 81 -117 192 -151 247
-34 55 -102 165 -150 245 -49 80 -107 174 -129 208 -22 35 -41 73 -42 85 -1
12 -10 24 -21 27 -33 9 -194 101 -194 111 0 5 37 -10 83 -33 45 -23 84 -42 87
-43 3 0 11 -4 18 -9 56 -35 265 -129 306 -137 28 -6 120 -26 205 -45 84 -20
156 -32 159 -29 4 3 8 60 9 125 3 118 3 119 -23 139 -37 29 -100 44 -154 37
-31 -4 -116 7 -269 34 -123 21 -226 42 -229 45 -5 4 9 60 25 101 12 32 -65 10
-99 -28 -24 -28 -46 -12 -112 81 -30 44 -75 103 -99 133 -23 29 -67 88 -96
130 -63 91 -135 162 -194 188 -56 26 -195 26 -292 0z m233 -30 c50 -14 126
-76 165 -134 41 -60 50 -76 44 -76 -4 0 -65 46 -95 70 -26 22 -163 89 -217
106 -30 10 -55 21 -55 25 0 17 111 23 158 9z m257 -776 c-3 -21 -11 -34 -18
-31 -20 6 -20 35 0 61 21 29 28 18 18 -30z m22 -90 c16 -24 16 -28 -1 -57 -16
-30 -85 -91 -93 -84 -4 4 28 98 47 140 16 34 25 34 47 1z m-132 -249 c-10 -5
-44 -27 -76 -47 -93 -59 -75 -7 24 71 l62 49 3 -31 c3 -22 -2 -35 -13 -42z"/>
<path d="M2166 5401 c-32 -33 -55 -65 -51 -71 3 -6 1 -9 -5 -8 -7 2 -24 -19
-38 -47 -15 -27 -30 -51 -34 -53 -4 -2 -4 -10 -1 -19 4 -10 2 -14 -4 -10 -6 4
-15 -10 -21 -31 -12 -41 -14 -124 -2 -117 4 2 5 -7 2 -20 -2 -14 0 -25 7 -25
6 0 8 -7 4 -17 -5 -12 -3 -14 7 -8 8 5 11 4 6 -3 -7 -11 18 -82 29 -82 3 0 4
3 2 8 -6 8 -20 163 -19 207 0 55 6 104 11 99 3 -2 17 15 33 38 30 46 33 51 88
138 19 30 39 61 43 68 15 23 2 12 -57 -47z"/>
<path d="M2872 5184 c1 -9 9 -19 16 -22 9 -3 13 2 10 14 -1 9 -9 19 -16 22 -9
3 -13 -2 -10 -14z"/>
<path d="M2570 5001 c0 -11 4 -21 9 -21 18 0 21 18 6 30 -13 10 -15 9 -15 -9z"/>
<path d="M2122 4634 c-41 -72 -47 -97 -28 -116 19 -20 221 -138 235 -138 5 0
13 -9 16 -20 6 -20 20 -26 29 -12 7 11 -62 117 -75 114 -6 -1 -7 3 -3 9 3 6 3
14 -2 18 -5 3 -15 19 -22 34 -7 17 -17 25 -24 21 -6 -4 -8 -3 -4 4 6 10 -70
142 -83 142 -4 0 -21 -25 -39 -56z"/>
<path d="M2429 4264 c-46 -36 -85 -69 -87 -75 -7 -20 17 -7 76 41 34 28 65 50
70 50 4 0 56 -81 116 -180 60 -99 115 -185 122 -191 8 -6 28 -37 46 -68 17
-31 53 -89 80 -129 26 -41 48 -77 48 -82 0 -5 21 -26 46 -47 61 -51 86 -75
104 -101 8 -12 20 -22 27 -22 17 0 43 40 43 67 0 12 -37 81 -82 152 -46 72
-104 166 -130 209 -123 203 -129 211 -253 314 -66 55 -121 106 -123 114 -2 8
-7 14 -11 14 -4 0 -46 -30 -92 -66z m476 -409 c30 -47 55 -89 55 -94 0 -12
-90 -25 -101 -14 -4 4 -30 44 -57 89 l-49 81 36 10 c20 6 41 11 48 12 7 0 37
-37 68 -84z"/>
<path d="M2285 4005 c8 -37 12 -42 26 -28 8 8 5 18 -11 35 l-23 23 8 -30z"/>
<path d="M2491 4014 c0 -11 3 -14 6 -6 3 7 2 16 -1 19 -3 4 -6 -2 -5 -13z"/>
<path d="M2161 3941 c-10 -18 -9 -21 9 -21 22 0 25 7 11 29 -7 11 -11 9 -20
-8z"/>
<path d="M2525 3920 c3 -5 8 -10 11 -10 2 0 4 5 4 10 0 6 -5 10 -11 10 -5 0
-7 -4 -4 -10z"/>
<path d="M2402 3898 c2 -17 17 -26 68 -43 48 -16 64 -26 62 -39 -2 -12 5 -16
26 -16 19 0 39 -12 65 -37 20 -21 36 -40 35 -43 -3 -13 14 -50 23 -50 16 0 -3
53 -32 91 -16 20 -29 41 -29 45 0 14 -58 50 -133 83 -82 37 -89 38 -85 9z"/>
<path d="M2290 3794 c-8 -1 -46 -6 -84 -9 -43 -4 -65 -10 -59 -16 12 -12 273
10 273 23 0 8 -97 9 -130 2z"/>
<path d="M2487 3736 c-16 -23 -15 -24 21 -30 81 -13 92 -4 37 32 -42 27 -39
27 -58 -2z"/>
<path d="M2193 3681 c-24 -11 -61 -35 -84 -53 -42 -34 -189 -203 -189 -218 0
-5 16 -14 35 -20 19 -6 35 -18 35 -25 0 -7 -13 -44 -29 -82 l-29 -68 -73 -12
c-40 -7 -79 -19 -87 -27 -12 -11 -11 -37 7 -173 19 -141 20 -166 8 -218 -13
-56 -15 -59 -55 -73 -41 -13 -97 -66 -87 -82 3 -4 28 -11 55 -15 36 -5 50 -11
50 -22 0 -18 -27 -114 -75 -263 -18 -58 -46 -145 -61 -195 -15 -50 -35 -96
-45 -102 -28 -20 -52 -97 -47 -147 4 -33 -1 -60 -19 -103 -64 -154 -141 -380
-162 -474 -6 -26 -12 -120 -13 -210 l-3 -164 36 -56 c75 -114 215 -186 570
-289 200 -58 297 -75 389 -67 113 9 202 71 250 172 8 17 28 45 43 64 62 73
122 248 193 561 18 79 33 123 50 143 29 34 57 126 49 159 -6 22 12 83 126 450
l39 126 51 -21 c43 -19 51 -19 59 -7 5 8 7 29 4 46 -5 28 -3 32 23 39 62 15
65 34 27 168 l-27 91 17 80 c10 45 23 101 31 126 7 25 16 64 20 86 6 39 5 42
-22 47 -15 3 -46 14 -68 23 -22 10 -42 18 -45 19 -3 1 -18 7 -35 14 -74 30
-114 41 -172 50 -72 11 -133 37 -133 57 0 8 4 14 9 14 11 0 31 54 31 82 0 11
-15 34 -32 52 -45 44 -128 64 -199 48 -113 -26 -150 -13 -186 70 -15 34 -18
36 -29 20 -7 -10 -26 -56 -44 -102 -17 -47 -35 -94 -40 -105 -14 -32 -47 -137
-54 -171 l-7 -31 -97 -7 c-53 -3 -109 -9 -124 -12 -26 -6 -32 5 -17 31 4 6 12
26 18 46 16 51 129 278 146 296 8 8 15 18 15 23 0 5 29 46 64 93 66 88 133
156 152 157 7 0 14 7 18 15 4 11 18 14 59 10 79 -6 186 -53 317 -139 74 -49
97 -47 69 6 -11 21 -164 97 -278 138 l-64 24 28 23 c15 13 26 25 24 27 -9 7
-118 46 -154 55 -22 6 -74 13 -115 16 -62 5 -82 2 -117 -14z m177 -89 c0 -32
-142 -179 -225 -231 -82 -52 -116 -37 -94 41 20 75 140 168 243 187 42 8 76
10 76 3z m-243 -1331 c-20 -69 -58 -191 -67 -216 -6 -16 -24 -70 -40 -120 -60
-187 -159 -465 -194 -550 -7 -16 -23 -59 -36 -93 -13 -35 -29 -66 -36 -69 -10
-4 -39 10 -73 34 -2 1 1 8 6 15 5 7 20 40 32 73 13 33 31 78 41 100 46 105 89
229 170 495 22 71 46 172 63 265 6 33 18 65 26 72 9 7 38 12 64 11 40 0 48 -4
44 -17z m-412 -1063 c25 -12 40 -25 34 -28 -6 -4 -11 -13 -13 -21 -1 -8 -7
-22 -12 -33 -12 -19 -24 -16 -67 18 -17 13 -18 19 -7 50 6 20 13 36 16 36 2 0
24 -10 49 -22z m-169 -337 c-4 -5 2 -7 12 -4 22 5 74 -36 54 -43 -6 -3 -10 -9
-7 -14 3 -4 -4 -6 -15 -3 -11 3 -17 9 -14 14 3 5 -2 6 -10 3 -9 -3 -16 -1 -16
5 0 6 -9 11 -20 11 -22 0 -23 1 -14 24 3 9 13 16 21 16 8 0 12 -4 9 -9z"/>
<path d="M1670 1140 c0 -5 5 -10 11 -10 5 0 7 5 4 10 -3 6 -8 10 -11 10 -2 0
-4 -4 -4 -10z"/>
<path d="M2438 3523 c7 -3 16 -2 19 1 4 3 -2 6 -13 5 -11 0 -14 -3 -6 -6z"/>
<path d="M2375 3470 c3 -5 17 -10 31 -10 13 0 24 5 24 10 0 6 -14 10 -31 10
-17 0 -28 -4 -24 -10z"/>
<path d="M3820 3389 c-22 -18 -22 -19 -3 -10 12 6 25 16 28 21 9 15 3 12 -25
-11z"/>
<path d="M3230 3268 l-19 -31 61 -88 c101 -146 123 -160 98 -61 -13 52 -97
212 -111 212 -5 0 -18 -14 -29 -32z"/>
<path d="M3630 3190 c8 -5 20 -10 25 -10 6 0 3 5 -5 10 -8 5 -19 10 -25 10 -5
0 -3 -5 5 -10z"/>
<path d="M3486 3155 c4 -8 8 -15 10 -15 2 0 4 7 4 15 0 8 -4 15 -10 15 -5 0
-7 -7 -4 -15z"/>
<path d="M3249 3082 c11 -21 41 -48 41 -38 0 4 -7 18 -16 31 -19 29 -40 34
-25 7z"/>
<path d="M3463 3082 c-8 -5 -9 -13 -3 -22 8 -13 10 -12 10 3 0 11 4 15 12 11
7 -4 8 -3 4 4 -8 14 -8 14 -23 4z"/>
<path d="M3494 3016 c0 -13 4 -22 9 -19 10 6 9 31 -2 37 -5 3 -8 -5 -7 -18z"/>
<path d="M3526 2916 c-3 -14 1 -40 12 -63 l17 -40 65 21 c36 11 58 22 49 24
-25 5 -124 56 -126 65 -3 19 -11 16 -17 -7z"/>
<path d="M3367 2858 c-32 -16 -38 -24 -33 -41 3 -12 6 -30 6 -39 0 -9 22 -39
49 -66 42 -42 48 -53 43 -78 l-5 -29 22 20 c16 13 20 26 16 42 -4 19 1 27 25
41 44 25 37 32 -17 16 -25 -8 -50 -14 -54 -14 -5 0 -10 38 -11 84 l-3 84 -38
-20z"/>
<path d="M3317 2556 c-10 -60 -16 -110 -14 -112 2 -2 18 -7 36 -10 l33 -7 -7
54 c-4 30 -12 83 -19 119 l-12 65 -17 -109z"/>
<path d="M3400 2492 c0 -46 23 -69 33 -33 3 12 -3 27 -14 37 -18 16 -19 16
-19 -4z"/>
<path d="M3470 2469 c0 -14 7 -34 15 -45 19 -25 19 -6 0 37 -13 32 -14 32 -15
8z"/>
<path d="M3520 2392 c0 -4 9 -13 20 -19 20 -13 37 -2 25 17 -7 12 -45 14 -45
2z"/>
<path d="M3602 2378 c2 -6 10 -14 16 -16 7 -2 10 2 6 12 -7 18 -28 22 -22 4z"/>
<path d="M3303 2353 c16 -16 18 -16 34 0 16 16 15 17 -17 17 -32 0 -33 -1 -17
-17z"/>
<path d="M3570 2339 c0 -16 7 -19 42 -19 47 0 47 2 -4 23 -36 15 -38 15 -38
-4z"/>
<path d="M3486 2331 c-6 -8 17 -42 61 -90 20 -22 26 -24 60 -15 49 12 53 44 8
57 -16 5 -51 20 -77 33 -26 13 -49 20 -52 15z"/>
<path d="M3434 2299 c-16 -17 -16 -22 -4 -29 21 -14 30 -12 30 4 0 8 3 21 6
30 9 23 -9 20 -32 -5z"/>
<path d="M3365 2253 c2 -27 5 -49 6 -50 1 -2 2 -7 3 -13 2 -16 47 -43 56 -34
4 5 11 19 15 32 5 18 2 22 -13 22 -14 0 -19 5 -16 18 4 14 -37 72 -51 72 -2 0
-2 -21 0 -47z"/>
<path d="M3290 2010 c0 -33 7 -37 35 -16 16 12 17 16 6 30 -22 26 -41 19 -41
-14z"/>
</g>
</svg>
